<?xml version="1.0" encoding="utf-8"?>
<!-- Generator: Adobe Illustrator 21.0.0, SVG Export Plug-In . SVG Version: 6.00 Build 0)  -->
<svg version="1.1" id="Livello_1" xmlns="http://www.w3.org/2000/svg" xmlns:xlink="http://www.w3.org/1999/xlink" x="0px" y="0px"
	 viewBox="0 0 133.1 156.9" style="enable-background:new 0 0 133.1 156.9;" xml:space="preserve">
<style type="text/css">
	.st0{fill:#FCFDFD;}
	.st1{fill:#1190CB;}
	.st2{fill:#37A8D2;}
	.st3{fill:#FFFFFF;stroke:#FFFFFF;stroke-linecap:round;stroke-miterlimit:10;}
	.st4{fill:#1D8FCB;}
</style>
<title>gallo</title>
<path class="st0" d="M6.2,156.9V0h126.8v156.9H6.2z M74.9,23.6c-0.5-1.2-1.1-2.4-1.8-3.5c-1.8-2.8-4.5-4-7.2-5.8
	c-2.8-1.8-5.6-3.7-8.8-4.6c-7.1-2-14.5-1.2-19.7,5c-5,5.9-3.4,12.5-0.7,18.9c1.6,3.7,3.8,7.3,5.8,11.1l-9.4,4.2l0.2,1.3
	c1.9,0.4,3.8,0.9,5.7,1.2c7.8,1.4,8.8,2.4,9.5,10.2c0.3,2.8,0.2,5.7-0.4,8.4c-1.1,4.7-2.6,9.3-4.3,13.8c-2.9,7.4-1.8,14,3.3,20
	c2.4,2.8,4.8,5.5,6.9,8.5c3.7,5.3,3.2,10-1.8,14.1c-2.3,1.9-5.1,3.1-7.6,4.8c-1,0.7-2.3,1.9-2.3,2.8s1.5,2,2.5,2.6
	c1.1,0.8,2.4,1.2,3.7,1.3c11.8,0,23.5,0,35.3-0.1c1-0.1,2-0.4,2.9-0.9c2.9-1.4,3.4-3.2,0.6-5.2c-2.2-1.5-4.7-2.6-6.8-4.1
	c-7.3-5.1-7.6-9.5-1.2-15.7c6.7-6.5,10.2-14.3,10-23.6c-0.1-2.2-0.1-4.3,0-6.5c0.4-4.4,2.6-7.7,7.1-8.4s7.1,2.2,8.1,6.3
	c0.8,3.2,1.1,6.6,1.7,9.8c0.5,2.5,1.6,4.5,4.3,2.1c7.8-7,13.8-14.9,12.7-26.3c-0.9-9.3-9.8-17.9-20.2-19.2
	c-9.1-1-17.7,4.5-20.5,13.3c-1,3.4-1.7,6.8-2.1,10.2c-1.1,6.7-3.9,9.7-9.3,9.7s-8.3-3.1-9.2-9.7c-1.4-9.5-2.9-19-4.3-28.5
	c-0.7-4.4,1.9-6.8,6.2-5.4c2.3,1,4.4,2.2,6.4,3.7c1.1,0.8,2.5,1.5,3.3,2.6c0.2,0.3,0.7,2,1.1,2c0.6,0,1.6-3.2,1.8-3.7
	c0.6-1.5,1-3.1,1.1-4.7c0.1-2.1-0.3-4.2-0.8-6.2C76.2,27.3,75.7,25.4,74.9,23.6z M43.8,54.9l-2.1-0.5c-1.8,3.1-4.2,6-5,9.3
	c-0.3,1.4,2.7,3.6,4.2,5.5c1.5-1.6,4.1-3.1,4.2-4.9C45.6,61.3,44.3,58.1,43.8,54.9z"/>
<path class="st1" d="M71.1,17.9l3.2,5.9l-6.4-5.4l-1.4,0.3c0.4,1.9,1,3.9,1.7,5.7c0.8,1.5,1.8,3,2.8,4.3l3.3-4.9
	c3.5,4.8,3.8,13.1,0.4,19c-1.6-1.2-3-2.4-4.6-3.4c-2-1.5-4.1-2.7-6.4-3.7c-4.2-1.5-6.8,1-6.2,5.4c1.5,9.5,2.9,19,4.3,28.5
	c1,6.6,3.8,9.7,9.2,9.7s8.2-3,9.3-9.7c0.4-3.5,1.1-6.9,2.1-10.2C85.4,50.6,94,45,103.1,46c10.5,1.3,19.4,9.9,20.2,19.2
	c1.1,11.4-4.9,19.3-12.7,26.3c-2.6,2.4-3.8,0.4-4.3-2.1c-0.6-3.3-0.9-6.6-1.7-9.8c-1-4.1-3.4-7.1-8.1-6.3s-6.7,4-7.1,8.4
	c-0.1,2.2-0.1,4.3,0,6.5c0.2,9.4-3.3,17.2-10,23.6c-6.4,6.2-6.1,10.5,1.2,15.7c2.2,1.5,4.6,2.6,6.8,4.1c2.8,1.9,2.3,3.8-0.6,5.2
	c-0.9,0.5-1.8,0.8-2.9,0.9c-11.8,0.1-23.5,0.2-35.3,0.1c-1.3-0.1-2.6-0.6-3.7-1.3c-1-0.6-2.4-1.7-2.5-2.6s1.3-2.1,2.3-2.8
	c2.5-1.7,5.3-2.9,7.6-4.8c5-4.1,5.5-8.8,1.8-14.1c-2.1-3-4.6-5.7-6.9-8.5c-5.1-6-6.2-12.6-3.3-20c1.8-4.5,3.2-9.1,4.3-13.8
	c0.6-2.8,0.7-5.6,0.4-8.4c-0.7-7.8-1.8-8.8-9.5-10.2c-1.9-0.4-3.8-0.8-5.7-1.2l-0.2-1.3l9.4-4.2c-2-3.8-4.1-7.4-5.8-11.1
	c-2.8-6.3-4.3-12.9,0.7-18.9c5.2-6.2,12.6-7,19.7-5C61.9,11,66,14.5,70.3,17L71.1,17.9z M49.2,42.4c-3.5,2.3-2.7,4.5,0,6.8
	c3.8,2.2,5.4,1.2,6.6-3.9c-1-1.1-1.6-2.5-2.6-2.9S50.6,42.3,49.2,42.4z"/>
<path class="st1" d="M43.9,54.9c0.1,0.6,0.1,1.3,0.3,1.8c0.3,1.5,0.7,2.9,1,4.4c0.2,1.5,0.7,3.8-0.2,5.1c-0.6,0.8-1.2,1.6-2,2.2
	c-0.3,0.2-0.6,0.5-1,0.5c-0.3,0-0.6,0-0.9-0.1c-1.2-0.3-2.3-0.9-3.2-1.8c-1.7-1.9-0.9-4.2,0.1-6.2c0.7-1.4,1.6-2.7,2.4-4
	c0.9-1.3,1.5-2.6,2.8-3.6c0,0,0,0,0.1,0c0,0,0.1,0,0.1,0.1C43.6,53.7,43.8,54.3,43.9,54.9z"/>
<path class="st2" d="M71.1,17.9l-0.9-1L71.1,17.9z"/>
<path class="st1" d="M76,27.6L72,36.9c-0.5,1.2-2.3,1.2-2.8,0c-1.1-2.4-2.2-5-3.1-7.6c0-0.1,0-0.1-0.1-0.2c-1-4.2-1.9-8.5-2.6-12.9
	c-0.1-0.7,0.3-1.5,1-1.7l0,0c0.6-0.2,1.3,0,1.7,0.5L76,27.6L76,27.6z"/>
<path class="st1" d="M42.5,41.2c3,0,6.4-0.6,9,0c2.6,0.6,3.8,2.6,6,4.2c-2.8,7.2-6.4,8.7-14.8,5.5l4.8-2.6L44.6,48l1.3-6.2
	L42.5,41.2z"/>
<circle class="st3" cx="66.2" cy="19" r="1.5"/>
<circle class="st3" cx="69.7" cy="23.7" r="1.9"/>
<circle class="st3" cx="50" cy="44.3" r="4"/>
<circle class="st3" cx="58.4" cy="77.8" r="2.2"/>
<circle class="st3" cx="56.2" cy="83.4" r="2.2"/>
<circle class="st3" cx="56.2" cy="89.6" r="2.2"/>
<circle class="st3" cx="59.2" cy="95.1" r="2.2"/>
<circle class="st3" cx="64.2" cy="97.8" r="2.2"/>
<circle class="st3" cx="70.1" cy="97.3" r="2.2"/>
<circle class="st3" cx="75.1" cy="93.4" r="2.2"/>
<circle class="st3" cx="77.3" cy="87.4" r="2.2"/>
<circle class="st3" cx="76.8" cy="81.4" r="2.2"/>
<circle class="st4" cx="50" cy="44.3" r="2.3"/>
<path d="M3.5,37.2c-1.1-0.1-2.2-0.6-2.9-1.4c0,0-0.1-0.1-0.1-0.1C0.2,34.9,0,34.1,0,33.3c0-0.5,0.1-1.1,0.1-1.6s0-0.9,0-1.3
	c0-0.8,0.3-1.6,0.8-2.2c0.4-0.5,0.9-1,1.5-1.3c0.1-0.1,0.2-0.1,0.4-0.1c0.2-0.1,0.5-0.1,0.7-0.1c0.7,0,1.4,0.2,2,0.6
	c0.5,0.4,1,0.8,1.4,1.3c0.4,0.5,0.7,1.1,0.8,1.7c0.1,0.7,0.2,1.3,0.3,2c0,0.5-0.1,1-0.3,1.5c-0.5,1.1-1.3,2.1-2.3,2.8
	C4.8,37.1,4.2,37.3,3.5,37.2z M0.4,30.5c0.3,0,0.4-0.3,0.5-0.5C1,29.9,1,29.9,1.2,29.8c0.1,0.1,0.2,0.2,0.2,0.3c0,0.2,0,0.3-0.1,0.5
	c-0.2,0.3-0.3,0.7-0.4,1c-0.2,1-0.2,1.9,0,2.9c0.1,0.6,0.4,1.1,0.9,1.4c0.4,0.3,0.8,0.5,1.3,0.6c0.6,0.1,1.2,0.1,1.7-0.2
	c0.5-0.2,0.9-0.6,1.2-1c0.3-0.3,0.5-0.6,0.8-0.9c0.2-0.4,0.4-0.9,0.6-1.3c0.1-0.3,0.1-0.6,0.2-0.9c0-0.7-0.1-1.3-0.3-1.9
	c-0.1-0.3-0.2-0.6-0.4-0.8c-0.4-0.6-1-1.1-1.6-1.6c-0.3-0.2-0.5-0.3-0.8-0.4c-0.5-0.2-0.9,0-1.4,0c-0.4,0.1-0.7,0.3-1,0.5
	c-0.3,0.3-0.6,0.6-0.9,1C0.6,29.4,0.4,29.9,0.4,30.5z"/>
<path d="M15.6,30.6c0.1,0.1,0.4,0.2,0.7,0.3c0.2,0.2,0.6,0.2,0.8,0.1c0.3-0.1,0.6,0,0.7,0.3c0,0,0,0.1,0,0.1c0.1,0.3,0.2,0.7,0.2,1
	c0,1,0.4,1.9,1.2,2.6c0.2,0.2,0.5,0.4,0.7,0.6s0.3,0.3,0.1,0.5c-0.1,0.1-0.3,0.2-0.4,0.1c0,0,0,0-0.1-0.1L18.2,35
	c0,0-0.1-0.1-0.1-0.1c-0.2-0.4-0.4-0.4-0.7-0.1c-0.1,0.1-0.2,0.3-0.3,0.4c-0.6,0.7-1.4,1-2.3,0.8c-0.2,0-0.5-0.1-0.7-0.1
	c-0.5-0.2-0.9-0.7-0.8-1.3c0.1-0.4,0.1-0.9,0-1.3c0-0.2,0-0.5,0.1-0.7c0.1-0.4,0.3-0.9,0.6-1.3C14.4,30.8,15,30.6,15.6,30.6z
	 M15.6,31.2c-0.5,0-0.9,0.2-1.2,0.5c-0.4,0.4-0.5,1-0.3,1.5c0,0.3,0.2,0.6,0.2,0.9c0.3,1.1,0.9,1.2,1.7,1c0.2,0,0.3-0.1,0.4-0.2
	c0.3-0.3,0.5-0.6,0.7-1c0-0.1,0.1-0.2,0.1-0.3c0-0.5-0.1-0.9-0.2-1.4C16.7,31.6,16.2,31.2,15.6,31.2L15.6,31.2z"/>
<path d="M29.5,47.4c0,0.5-0.2,0.7-0.6,0.4l-1.2-0.7c-0.1,0-0.1-0.1-0.2-0.2c-0.2-0.3-0.4-0.5-0.7-0.7c-0.2-0.2-0.4-0.4-0.6-0.6
	c-0.3-0.2-0.6-0.5-0.9-0.7s-0.4-0.4-0.6-0.6s-0.1-0.2-0.2-0.2c-0.4-0.2-0.7-0.5-0.9-0.9c-0.2-0.3-0.5-0.5-0.7-0.8
	c-0.1-0.1-0.1-0.2-0.1-0.3c0-0.2,0.1-0.4,0.2-0.6c0.1-0.1,0.3,0,0.4,0.1s0.1,0.2,0.2,0.2s0.1,0.1,0.1,0.1c0.3,0.1,0.4,0.4,0.6,0.6
	c0.4,0.4,0.8,0.7,1.2,1c0.6,0.4,1.2,0.9,1.7,1.4c0.2,0.2,0.4,0.2,0.6,0.4c0.2,0.1,0.3,0.3,0.5,0.4c0.3,0.2,0.5,0.5,0.8,0.7
	S29.5,47.1,29.5,47.4z"/>
<path d="M9.7,32c0.1-1.4,0.1-2.6,0.2-3.7c0-0.7,0.1-1.3,0.2-2c0-0.2,0.1-0.5,0.2-0.7c0-0.1,0.2-0.1,0.3-0.2c0.1,0.1,0.2,0.2,0.2,0.3
	c-0.1,0.6-0.1,1.2-0.2,1.9c-0.1,1-0.1,2-0.1,3c0,0.5-0.1,0.9,0,1.4c0,0.6,0.1,1.2,0.2,1.8c0.2,0.7,0.4,1.3,0.7,1.9
	c0.2,0.4,0.6,0.4,1,0.3c0.1-0.1,0.2-0.1,0.3-0.1c0.1,0,0.2,0,0.3,0.1c0,0.1,0,0.2-0.1,0.3c-0.5,0.6-1.3,0.7-1.9,0.2
	c-0.1-0.1-0.2-0.2-0.3-0.3c-0.4-0.6-0.7-1.3-0.9-2.1C9.8,33.2,9.8,32.5,9.7,32z"/>
<path d="M23.6,24c0.1,0.6,0.1,1.2,0.2,1.9s0.2,1.1,0.2,1.6c0,0.3,0.1,0.6,0.1,0.9c0,0.4,0,0.8-0.1,1.1c0,0.1-0.1,0.1-0.1,0.2
	s-0.2-0.1-0.2-0.2c-0.1-0.3-0.1-0.6-0.2-1c-0.1-0.6-0.2-1.3-0.3-1.9c0-0.2-0.1-0.5-0.1-0.8c0-0.2,0-0.4,0-0.6c0-0.5,0-1,0.1-1.4
	c0-0.1,0-0.2,0.1-0.3c0.1-0.1,0.2-0.1,0.2-0.2c0.1,0.1,0.1,0.2,0.2,0.4C23.6,23.8,23.6,23.9,23.6,24z"/>
<path d="M18.6,25.9c-0.1,0.1-0.1,0.3-0.2,0.5c-0.3,0.6-0.5,1.1-0.8,1.7c-0.2,0.3-0.3,0.5-0.6,0.7c-0.1,0.1-0.2,0.1-0.4,0.1
	c-0.1-0.1-0.1-0.3-0.1-0.4c0-0.2,0.1-0.3,0.2-0.5c0.4-0.6,0.7-1.3,1.1-1.9c0.1-0.2,0.3-0.3,0.4-0.5C18.4,25.6,18.6,25.7,18.6,25.9z"
	/>
<path d="M24.8,35.8c-0.2,0-0.4-0.2-0.4-0.4c0-0.3,0.2-0.5,0.4-0.5s0.5,0.1,0.5,0.4C25.3,35.5,25,35.8,24.8,35.8
	C24.8,35.8,24.8,35.8,24.8,35.8z"/>
<path class="st1" d="M69.7,19c0.4,0.7,0.5,1.4,1,1.9c0.4,0.5,0.8,1,1.1,1.5c0.1,0.1,0.2,0.3,0.3,0.4c0.1,0.1,0.3,0.2,0.5,0.1
	c0.2-0.1,0.4-0.3,0.4-0.5c0.1-0.5,0.1-1-0.2-1.4c-0.3-0.4-0.7-0.7-1.2-0.9c-0.4-0.2-0.7-0.4-1.1-0.6c-0.1,0-0.1-0.1-0.2,0
	c0,0,0,0.1,0,0.1c0,0.1-0.1,0.2-0.3,0.2"/>
<path class="st1" d="M74,23.2c-0.2-0.4-0.6-0.6-0.9-0.7c-0.2-0.1-0.4,0-0.6,0.1c-0.1,0-0.1,0.1-0.1,0.1c0,0,0,0.1,0,0.2
	c-0.1,1.2,0.6,2.4,1.5,2.6C74.9,25.5,74.5,23.9,74,23.2z"/>
<path class="st1" d="M64.4,30.7c1.2-0.3,2.5,0.1,3.5,1.1c1.5,1.4,2.3,3.8,3.1,6c0.9,2.2,2.1,4.4,3.8,4.9c0.6,0.2,1.2,0.1,1.6-0.4
	c0.3-0.3,0.6-0.8,0.7-1.4c1.1-3,1-6.6,0.9-10"/>
<ellipse transform="matrix(0.7346 -0.6785 0.6785 0.7346 2.2062 51.0237)" class="st1" cx="66.3" cy="22.7" rx="6.7" ry="15.8"/>
<circle class="st1" cx="81.1" cy="11.8" r="0"/>
<ellipse class="st3" cx="72.6" cy="26.9" rx="1.9" ry="2"/>
<ellipse class="st3" cx="69.7" cy="21.8" rx="1.7" ry="1.7"/>
</svg>
