<svg id="Livello_1" data-name="Livello 1" xmlns="http://www.w3.org/2000/svg" viewBox="0 0 123.43 129.22"><defs><style>.cls-1{fill:#37a8d2;}.cls-2{fill:#fff;stroke:#fff;stroke-linecap:round;stroke-miterlimit:10;}.cls-3{fill:#1190cb;}</style></defs><title>gallonero</title><path d="M425.1,236.9l3.2,5.9-6.4-5.4-1.4.3a37.37,37.37,0,0,0,1.7,5.7,31.76,31.76,0,0,0,2.8,4.3l3.3-4.9c3.5,4.8,3.8,13.1.4,19-1.6-1.2-3-2.4-4.6-3.4a31.35,31.35,0,0,0-6.4-3.7c-4.2-1.5-6.8,1-6.2,5.4,1.5,9.5,2.9,19,4.3,28.5,1,6.6,3.8,9.7,9.2,9.7s8.2-3,9.3-9.7a57.68,57.68,0,0,1,2.1-10.2A19.72,19.72,0,0,1,457.1,265c10.5,1.3,19.4,9.9,20.2,19.2,1.1,11.4-4.9,19.3-12.7,26.3-2.6,2.4-3.8.4-4.3-2.1-.6-3.3-.9-6.6-1.7-9.8-1-4.1-3.4-7.1-8.1-6.3s-6.7,4-7.1,8.4c-.1,2.2-.1,4.3,0,6.5.2,9.4-3.3,17.2-10,23.6-6.4,6.2-6.1,10.5,1.2,15.7,2.2,1.5,4.6,2.6,6.8,4.1,2.8,1.9,2.3,3.8-.6,5.2a7,7,0,0,1-2.9.9c-11.8.1-23.5.2-35.3.1a8.23,8.23,0,0,1-3.7-1.3c-1-.6-2.4-1.7-2.5-2.6s1.3-2.1,2.3-2.8c2.5-1.7,5.3-2.9,7.6-4.8,5-4.1,5.5-8.8,1.8-14.1-2.1-3-4.6-5.7-6.9-8.5-5.1-6-6.2-12.6-3.3-20a95.83,95.83,0,0,0,4.3-13.8,26.39,26.39,0,0,0,.4-8.4c-.7-7.8-1.8-8.8-9.5-10.2l-5.7-1.2-.2-1.3,9.4-4.2c-2-3.8-4.1-7.4-5.8-11.1-2.8-6.3-4.3-12.9.7-18.9,5.2-6.2,12.6-7,19.7-5,4.7,1.4,8.8,4.9,13.1,7.4Zm-21.9,24.5c-3.5,2.3-2.7,4.5,0,6.8,3.8,2.2,5.4,1.2,6.6-3.9-1-1.1-1.6-2.5-2.6-2.9S404.6,261.3,403.2,261.4Z" transform="translate(-354 -227.62)"/><path d="M397.9,273.9a9.66,9.66,0,0,0,.3,1.8c.3,1.5.7,2.9,1,4.4s.7,3.8-.2,5.1a10.48,10.48,0,0,1-2,2.2,1.91,1.91,0,0,1-1,.5,2.77,2.77,0,0,1-.9-.1,6.83,6.83,0,0,1-3.2-1.8c-1.7-1.9-.9-4.2.1-6.2.7-1.4,1.6-2.7,2.4-4a14,14,0,0,1,2.8-3.6h.1a.1.1,0,0,1,.1.1A6,6,0,0,1,397.9,273.9Z" transform="translate(-354 -227.62)"/><path class="cls-1" d="M425.1,236.9l-.9-1Z" transform="translate(-354 -227.62)"/><path d="M430,246.6l-4,9.3a1.54,1.54,0,0,1-2.8,0c-1.1-2.4-2.2-5-3.1-7.6,0-.1,0-.1-.1-.2-1-4.2-1.9-8.5-2.6-12.9a1.55,1.55,0,0,1,1-1.7h0a1.57,1.57,0,0,1,1.7.5l9.9,12.6Z" transform="translate(-354 -227.62)"/><path d="M396.5,260.2c3,0,6.4-.6,9,0s3.8,2.6,6,4.2c-2.8,7.2-6.4,8.7-14.8,5.5l4.8-2.6-2.9-.3,1.3-6.2Z" transform="translate(-354 -227.62)"/><circle class="cls-2" cx="66.2" cy="10.38" r="1.5"/><circle class="cls-2" cx="69.7" cy="15.08" r="1.9"/><circle class="cls-2" cx="50" cy="35.68" r="4"/><circle class="cls-2" cx="58.4" cy="69.18" r="2.2"/><circle class="cls-2" cx="56.2" cy="74.78" r="2.2"/><circle class="cls-2" cx="56.2" cy="80.98" r="2.2"/><circle class="cls-2" cx="59.2" cy="86.48" r="2.2"/><circle class="cls-2" cx="64.2" cy="89.18" r="2.2"/><circle class="cls-2" cx="70.1" cy="88.68" r="2.2"/><circle class="cls-2" cx="75.1" cy="84.78" r="2.2"/><circle class="cls-2" cx="77.3" cy="78.78" r="2.2"/><circle class="cls-2" cx="76.8" cy="72.78" r="2.2"/><circle cx="50" cy="35.68" r="2.3"/><path d="M357.5,256.2a4.45,4.45,0,0,1-2.9-1.4l-.1-.1a6.87,6.87,0,0,1-.5-2.4c0-.5.1-1.1.1-1.6v-1.3a3.49,3.49,0,0,1,.8-2.2,4.71,4.71,0,0,1,1.5-1.3c.1-.1.2-.1.4-.1a1.7,1.7,0,0,1,.7-.1,3.61,3.61,0,0,1,2,.6,8.64,8.64,0,0,1,1.4,1.3,3.81,3.81,0,0,1,.8,1.7c.1.7.2,1.3.3,2a4,4,0,0,1-.3,1.5,7,7,0,0,1-2.3,2.8A2.31,2.31,0,0,1,357.5,256.2Zm-3.1-6.7c.3,0,.4-.3.5-.5a.77.77,0,0,1,.3-.2c.1.1.2.2.2.3a.9.9,0,0,1-.1.5,4.18,4.18,0,0,0-.4,1,7.08,7.08,0,0,0,0,2.9,1.94,1.94,0,0,0,.9,1.4,3.1,3.1,0,0,0,1.3.6,2.46,2.46,0,0,0,1.7-.2,2.94,2.94,0,0,0,1.2-1c.3-.3.5-.6.8-.9s.4-.9.6-1.3.1-.6.2-.9a5.82,5.82,0,0,0-.3-1.9,2,2,0,0,0-.4-.8,8.08,8.08,0,0,0-1.6-1.6,3,3,0,0,0-.8-.4c-.5-.2-.9,0-1.4,0a3.13,3.13,0,0,0-1,.5,9,9,0,0,0-.9,1A1.66,1.66,0,0,0,354.4,249.5Z" transform="translate(-354 -227.62)"/><path d="M369.6,249.6a2.39,2.39,0,0,0,.7.3.78.78,0,0,0,.8.1.52.52,0,0,1,.7.3v.1a3.55,3.55,0,0,1,.2,1,3.37,3.37,0,0,0,1.2,2.6c.2.2.5.4.7.6s.3.3.1.5-.3.2-.4.1l-.1-.1-1.3-1.1-.1-.1c-.2-.4-.4-.4-.7-.1-.1.1-.2.3-.3.4a2.26,2.26,0,0,1-2.3.8c-.2,0-.5-.1-.7-.1a1.21,1.21,0,0,1-.8-1.3,2.85,2.85,0,0,0,0-1.3,1.7,1.7,0,0,1,.1-.7,3.79,3.79,0,0,1,.6-1.3A2,2,0,0,1,369.6,249.6Zm0,.6a1.66,1.66,0,0,0-1.2.5,1.4,1.4,0,0,0-.3,1.5c0,.3.2.6.2.9.3,1.1.9,1.2,1.7,1a.52.52,0,0,0,.4-.2,3.59,3.59,0,0,0,.7-1c0-.1.1-.2.1-.3a6.75,6.75,0,0,0-.2-1.4,1.61,1.61,0,0,0-1.4-1Z" transform="translate(-354 -227.62)"/><path d="M383.5,266.4c0,.5-.2.7-.6.4l-1.2-.7c-.1,0-.1-.1-.2-.2a2.34,2.34,0,0,0-.7-.7l-.6-.6c-.3-.2-.6-.5-.9-.7a3.39,3.39,0,0,1-.6-.6c-.2-.2-.1-.2-.2-.2a2,2,0,0,1-.9-.9c-.2-.3-.5-.5-.7-.8a.37.37,0,0,1-.1-.3,1.42,1.42,0,0,1,.2-.6c.1-.1.3,0,.4.1s.1.2.2.2a.1.1,0,0,1,.1.1c.3.1.4.4.6.6a10.59,10.59,0,0,0,1.2,1,11.51,11.51,0,0,1,1.7,1.4c.2.2.4.2.6.4s.3.3.5.4.5.5.8.7A1.28,1.28,0,0,1,383.5,266.4Z" transform="translate(-354 -227.62)"/><path d="M363.7,251c.1-1.4.1-2.6.2-3.7a13.55,13.55,0,0,1,.2-2,1.85,1.85,0,0,1,.2-.7c0-.1.2-.1.3-.2.1.1.2.2.2.3-.1.6-.1,1.2-.2,1.9-.1,1-.1,2-.1,3a6.55,6.55,0,0,0,0,1.4,11,11,0,0,0,.2,1.8,10.66,10.66,0,0,0,.7,1.9c.2.4.6.4,1,.3a.31.31,0,1,1,.5.3,1.31,1.31,0,0,1-1.9.2l-.3-.3a6.67,6.67,0,0,1-.9-2.1A12.17,12.17,0,0,0,363.7,251Z" transform="translate(-354 -227.62)"/><path d="M377.6,243c.1.6.1,1.2.2,1.9a11.55,11.55,0,0,1,.2,1.6c0,.3.1.6.1.9a3.75,3.75,0,0,1-.1,1.1c0,.1-.1.1-.1.2s-.2-.1-.2-.2c-.1-.3-.1-.6-.2-1-.1-.6-.2-1.3-.3-1.9,0-.2-.1-.5-.1-.8v-.6a6.15,6.15,0,0,1,.1-1.4.37.37,0,0,1,.1-.3c.1-.1.2-.1.2-.2.1.1.1.2.2.4A.37.37,0,0,0,377.6,243Z" transform="translate(-354 -227.62)"/><path d="M372.6,244.9c-.1.1-.1.3-.2.5-.3.6-.5,1.1-.8,1.7a2,2,0,0,1-.6.7c-.1.1-.2.1-.4.1a.6.6,0,0,1-.1-.4c0-.2.1-.3.2-.5.4-.6.7-1.3,1.1-1.9.1-.2.3-.3.4-.5C372.4,244.6,372.6,244.7,372.6,244.9Z" transform="translate(-354 -227.62)"/><path d="M378.8,254.8a.43.43,0,0,1-.4-.4.46.46,0,0,1,.4-.5c.2,0,.5.1.5.4a.64.64,0,0,1-.5.5Z" transform="translate(-354 -227.62)"/><path class="cls-3" d="M423.7,238a8.48,8.48,0,0,0,1,1.9,14.31,14.31,0,0,1,1.1,1.5c.1.1.2.3.3.4a.44.44,0,0,0,.5.1.66.66,0,0,0,.4-.5,1.7,1.7,0,0,0-.2-1.4,2.73,2.73,0,0,0-1.2-.9c-.4-.2-.7-.4-1.1-.6-.1,0-.1-.1-.2,0v.1c0,.1-.1.2-.3.2" transform="translate(-354 -227.62)"/><path class="cls-3" d="M428,242.2a1.5,1.5,0,0,0-.9-.7.66.66,0,0,0-.6.1.1.1,0,0,0-.1.1v.2a2.44,2.44,0,0,0,1.5,2.6C428.9,244.5,428.5,242.9,428,242.2Z" transform="translate(-354 -227.62)"/><path d="M418.4,249.7a3.69,3.69,0,0,1,3.5,1.1c1.5,1.4,2.3,3.8,3.1,6s2.1,4.4,3.8,4.9a1.38,1.38,0,0,0,1.6-.4,2.65,2.65,0,0,0,.7-1.4c1.1-3,1-6.6.9-10" transform="translate(-354 -227.62)"/><ellipse cx="420.31" cy="241.71" rx="6.7" ry="15.8" transform="translate(-406.45 121.71) rotate(-42.73)"/><circle class="cls-3" cx="81.1" cy="3.18"/><ellipse class="cls-2" cx="72.6" cy="18.28" rx="1.9" ry="2"/><circle class="cls-2" cx="69.7" cy="13.18" r="1.7"/></svg>