<svg id="Livello_1" data-name="Livello 1" xmlns="http://www.w3.org/2000/svg" viewBox="0 0 770.58 413.24"><defs><style>.cls-1,.cls-4,.cls-5{fill:#1190cb;}.cls-1,.cls-17{stroke:#1190cb;}.cls-1,.cls-17,.cls-2,.cls-3,.cls-8{stroke-miterlimit:10;}.cls-1,.cls-2,.cls-3{stroke-width:5px;}.cls-2{fill:none;}.cls-2,.cls-3,.cls-8{stroke:#fff;}.cls-3,.cls-8{fill:#fff;}.cls-5{font-size:245.51px;font-family:KGHardCandyStripedW00-Rg, KGHardCandyStripedW00-Rg;}.cls-6{letter-spacing:-0.01em;}.cls-7{letter-spacing:0em;}.cls-8{stroke-width:16px;}.cls-9{font-size:72px;fill:#252728;font-family:Barlow-Medium, Barlow;letter-spacing:0em;}.cls-10{letter-spacing:0em;}.cls-11{letter-spacing:0em;}.cls-12{letter-spacing:0em;}.cls-13{letter-spacing:-0.02em;}.cls-14{letter-spacing:0.01em;}.cls-15{letter-spacing:-0.01em;}.cls-16{letter-spacing:0em;}.cls-17{stroke-width:4px;}</style></defs><title>giulia-gallo-s6</title><path class="cls-1" d="M780.63,130.58c-1.56-23.9-11.38-44-29.92-59.15-24.19-19.83-52-25.94-82.44-19.3s-46.67,31.74-40.93,62.12c3.82,20.23,12.73,38.28,24.34,55.1,1.81,2.62,3.85,5.09,4.85,8.2.64,2,.35,3.3-1.87,4.18A154.23,154.23,0,0,1,638.91,187a47.19,47.19,0,0,0-15.08,6.81c-1.22.86-2.74,1.67-2.47,3.53s2,2.24,3.38,2.71a67.29,67.29,0,0,0,13,2.82c9.87,1.39,19.87,2.22,29.08,6.58,2.29,1.09,4.14,2.31,5.19,4.95,7.66,19.22,9.79,38.75,5,59.12-1.2,5.14-2.6,10.2-4.13,15.22,11.72-.44,23.43-.87,35.17-.9,7.17,0,14.27.21,21.44.42.48,0,1,0,1.42,0-.22-.45-.45-.9-.67-1.38-5.15-11.21-5.44-23.12-6.15-35-1.12-18.7-1.32-37.5-5.93-55.81-2.6-10.34-6-20.48-8.35-30.87-3.3-14.66,6.61-23.83,21.24-20.23,9.59,2.36,17.43,7.66,24.55,14.24,3.06,2.83,5.91,5.94,9.25,8.39,9,6.59,11.89,5.45,14.31-5.48C781.46,151.71,781.32,141.11,780.63,130.58Z" transform="translate(-472 -47.06)"/><path class="cls-1" d="M657.54,215.05c4.9,10.34,8.87,20.36,9.16,31.44a32.62,32.62,0,0,1-1.81,11.85c-2,5.66-5.31,9.87-11.72,10.2s-12-1.93-15.68-7.6c-5.18-8-3.88-22.52,3.15-30C645.85,225.45,651.7,220.52,657.54,215.05Z" transform="translate(-472 -47.06)"/><path class="cls-2" d="M702.56,182.73c-.05,8-7,15-14.78,15s-15.23-7.35-15.27-15.16,7.42-15,15.42-14.85A15.15,15.15,0,0,1,702.56,182.73Z" transform="translate(-472 -47.06)"/><path class="cls-3" d="M761.33,124.5a8.84,8.84,0,1,1,9.08-8.82A8.83,8.83,0,0,1,761.33,124.5Z" transform="translate(-472 -47.06)"/><path class="cls-3" d="M756.41,92.19a6.9,6.9,0,0,1-13.79-.4,6.9,6.9,0,0,1,13.79.4Z" transform="translate(-472 -47.06)"/><path class="cls-4" d="M687.33,174.85A7.44,7.44,0,0,1,695,182a7.35,7.35,0,0,1-7.36,7.79,7.47,7.47,0,1,1-.28-14.93Z" transform="translate(-472 -47.06)"/><path d="M518.28,156.14a14.55,14.55,0,0,1-9.49-4.58l-.33-.33a22.49,22.49,0,0,1-1.64-7.85c0-1.64.33-3.6.33-5.23v-4.25a11.43,11.43,0,0,1,2.62-7.2,15.4,15.4,0,0,1,4.91-4.25c.33-.33.65-.33,1.31-.33a5.57,5.57,0,0,1,2.29-.33,11.8,11.8,0,0,1,6.54,2A28.25,28.25,0,0,1,529.4,128a12.45,12.45,0,0,1,2.62,5.56c.33,2.29.65,4.25,1,6.54a13.13,13.13,0,0,1-1,4.91,22.76,22.76,0,0,1-7.52,9.16A7.55,7.55,0,0,1,518.28,156.14Zm-10.14-21.92c1,0,1.31-1,1.64-1.64a2.52,2.52,0,0,1,1-.65c.33.33.65.65.65,1a3,3,0,0,1-.33,1.64,13.67,13.67,0,0,0-1.31,3.27,23.17,23.17,0,0,0,0,9.49,6.36,6.36,0,0,0,2.94,4.58,10.14,10.14,0,0,0,4.25,2,8.06,8.06,0,0,0,5.56-.65,9.62,9.62,0,0,0,3.93-3.27c1-1,1.64-2,2.62-2.94.65-1.31,1.31-2.94,2-4.25.33-1,.33-2,.65-2.94a19,19,0,0,0-1-6.22,6.58,6.58,0,0,0-1.31-2.62,26.44,26.44,0,0,0-5.23-5.23,9.79,9.79,0,0,0-2.62-1.31c-1.64-.65-2.94,0-4.58,0A10.23,10.23,0,0,0,513.7,126a29.49,29.49,0,0,0-2.94,3.27A5.43,5.43,0,0,0,508.14,134.22Z" transform="translate(-472 -47.06)"/><path d="M557.86,134.55a7.82,7.82,0,0,0,2.29,1,2.56,2.56,0,0,0,2.62.33,1.69,1.69,0,0,1,2.29,1v.33a11.62,11.62,0,0,1,.65,3.27,11,11,0,0,0,3.93,8.51c.65.65,1.64,1.31,2.29,2s1,1,.33,1.64c-.33.33-1,.65-1.31.33l-.33-.33-4.25-3.6-.33-.33c-.65-1.31-1.31-1.31-2.29-.33-.33.33-.65,1-1,1.31a7.4,7.4,0,0,1-7.52,2.62c-.65,0-1.64-.33-2.29-.33a4,4,0,0,1-2.62-4.25,9.34,9.34,0,0,0,0-4.25,5.57,5.57,0,0,1,.33-2.29,12.4,12.4,0,0,1,2-4.25A6.51,6.51,0,0,1,557.86,134.55Zm0,2a5.42,5.42,0,0,0-3.93,1.64,4.57,4.57,0,0,0-1,4.91c0,1,.65,2,.65,2.94,1,3.6,2.94,3.93,5.56,3.27a1.7,1.7,0,0,0,1.31-.65,11.75,11.75,0,0,0,2.29-3.27c0-.33.33-.65.33-1a22.09,22.09,0,0,0-.65-4.58,5.27,5.27,0,0,0-4.58-3.27Z" transform="translate(-472 -47.06)"/><path d="M603.33,189.51c0,1.64-.65,2.29-2,1.31l-3.93-2.29c-.33,0-.33-.33-.65-.65a7.64,7.64,0,0,0-2.29-2.29l-2-2c-1-.65-2-1.64-2.94-2.29a11.1,11.1,0,0,1-2-2c-.65-.65-.33-.65-.65-.65a6.42,6.42,0,0,1-2.94-2.94c-.65-1-1.64-1.64-2.29-2.62a1.2,1.2,0,0,1-.33-1,4.65,4.65,0,0,1,.65-2c.33-.33,1,0,1.31.33s.33.65.65.65a.32.32,0,0,1,.33.33c1,.33,1.31,1.31,2,2a34.65,34.65,0,0,0,3.93,3.27,37.66,37.66,0,0,1,5.56,4.58c.65.65,1.31.65,2,1.31.65.33,1,1,1.64,1.31,1,.65,1.64,1.64,2.62,2.29S603.33,188.53,603.33,189.51Z" transform="translate(-472 -47.06)"/><path d="M538.56,139.13c.33-4.58.33-8.51.65-12.1a44.34,44.34,0,0,1,.65-6.54,6.07,6.07,0,0,1,.65-2.29c0-.33.65-.33,1-.65.33.33.65.65.65,1-.33,2-.33,3.93-.65,6.22-.33,3.27-.33,6.54-.33,9.81a21.43,21.43,0,0,0,0,4.58,36,36,0,0,0,.65,5.89,34.88,34.88,0,0,0,2.29,6.22c.65,1.31,2,1.31,3.27,1a1,1,0,1,1,1.64,1,4.28,4.28,0,0,1-6.22.65l-1-1a21.81,21.81,0,0,1-2.94-6.87A39.8,39.8,0,0,0,538.56,139.13Z" transform="translate(-472 -47.06)"/><path d="M584,113c.33,2,.33,3.93.65,6.22a37.78,37.78,0,0,1,.65,5.23c0,1,.33,2,.33,2.94a12.27,12.27,0,0,1-.33,3.6c0,.33-.33.33-.33.65s-.65-.33-.65-.65c-.33-1-.33-2-.65-3.27-.33-2-.65-4.25-1-6.22,0-.65-.33-1.64-.33-2.62v-2a20.12,20.12,0,0,1,.33-4.58,1.2,1.2,0,0,1,.33-1c.33-.33.65-.33.65-.65.33.33.33.65.65,1.31A1.2,1.2,0,0,0,584,113Z" transform="translate(-472 -47.06)"/><path d="M567.68,119.17c-.33.33-.33,1-.65,1.64-1,2-1.64,3.6-2.62,5.56a6.66,6.66,0,0,1-2,2.29c-.33.33-.65.33-1.31.33a2,2,0,0,1-.33-1.31c0-.65.33-1,.65-1.64,1.31-2,2.29-4.25,3.6-6.22.33-.65,1-1,1.31-1.64C567,118.19,567.68,118.52,567.68,119.17Z" transform="translate(-472 -47.06)"/><path d="M588,151.56a1.41,1.41,0,0,1-1.31-1.31,1.5,1.5,0,0,1,1.31-1.64c.65,0,1.64.33,1.64,1.31a2.1,2.1,0,0,1-1.64,1.64Z" transform="translate(-472 -47.06)"/><text class="cls-5" transform="translate(260.61 243.87) scale(0.88 1)">Lisb<tspan class="cls-6" x="386.19" y="0">o</tspan><tspan class="cls-7" x="475.8" y="0">a</tspan></text><line class="cls-8" y1="251.36" x2="262.46" y2="251.36"/><text class="cls-9" transform="translate(154.71 331.66) scale(1.01 1)">C<tspan class="cls-10" x="43.7" y="0">o</tspan><tspan class="cls-11" x="83.73" y="0">r</tspan><tspan class="cls-10" x="110.15" y="0">si di Lingua e </tspan><tspan class="cls-10"><tspan x="0" y="65.67">Cultu</tspan><tspan class="cls-12" x="165.23" y="65.67">r</tspan><tspan x="191.72" y="65.67">a </tspan><tspan class="cls-13" x="243.49" y="65.67">P</tspan><tspan x="284.67" y="65.67">o</tspan><tspan class="cls-14" x="324.7" y="65.67">r</tspan><tspan class="cls-15" x="352.27" y="65.67">t</tspan><tspan class="cls-16" x="378.05" y="65.67">oghese</tspan></tspan></text><line class="cls-17" x1="149.8" y1="260.76" x2="767.88" y2="260.76"/><path class="cls-4" d="M794.5,172l0,8.56c0,1.63,2.69,2.11,2.95.4a44.16,44.16,0,0,1,8.85-20.72l-2.74-1.16a95.09,95.09,0,0,1-6.06,19.63l2.74,1.16c2.12-7.45,4.36-14.88,9.76-20.67l-2.36-1.82A104.84,104.84,0,0,0,800,178h2.89a21,21,0,0,0-4-9.82c-.58-.8-2.09-1.14-2.59,0a5.51,5.51,0,0,1-2.26,3l2.51.66c-.87-5.69,6.31-12.84,9.36-17.19l9.94-14.18-2.74-.36c.88,2.83-4,8-5.44,10.23l-6,9.25,2.74,1.16c1.15-4,2.15-8,3-12a1.53,1.53,0,0,0-.69-1.69c-7.94-3.71-5.22,9.92-5.51,13.14-1.08,12-4.8,24.1-7.75,35.7l2.95.4a11.77,11.77,0,0,1,2.55-8.7l-2.8-.76a36.86,36.86,0,0,1-1.51,14.06l2.95.4A110.46,110.46,0,0,1,801.95,178c.51-1.72-1.8-2.47-2.74-1.16a21.09,21.09,0,0,0-4,9.52c-.24,1.74-1.19,11.84-4.61,9.07-2.36-1.91,1.47-8,2.72-9.36l-2.56-1.06-2.37,19.56,2.95-.4a18.92,18.92,0,0,1,.63-13.33l-2.95-.4a73.39,73.39,0,0,1,.46,11.73c-.07,1.67,2.6,2.07,2.95.4A52.87,52.87,0,0,1,796,191.44l-2.8-.76a32.52,32.52,0,0,1-2.08,10.38l2.95.4a201.32,201.32,0,0,1,.27-20.8h-3l.14,19.06a1.51,1.51,0,0,0,2.95.4q3.25-9.3,7.37-18.24l-2.8-.76c0,.31.16,5.77,0,5.84-1.11.44-2.38-3-2.68-3.53-.89-1.57-3-.44-2.74,1.16l-2.22,4.75,2.05.54a6.12,6.12,0,0,1-.49-5.5,1.5,1.5,0,0,0-2.89-.8,10.1,10.1,0,0,0,.79,7.81,1.51,1.51,0,0,0,2.05.54,7.37,7.37,0,0,0,3.6-8.14L793.73,185c1.16,2,3.11,7.69,6.42,6.76s1.87-8.29,1.88-10.59c0-1.4-2.15-2.15-2.8-.76q-4.3,9.3-7.67,19l2.95.4-.14-19.06a1.5,1.5,0,0,0-3,0,201.32,201.32,0,0,0-.27,20.8,1.51,1.51,0,0,0,2.95.4,35,35,0,0,0,2.19-11.18c.05-1.42-2.17-2.14-2.8-.76a56.49,56.49,0,0,0-3.88,11.89l2.95.4a73.39,73.39,0,0,0-.46-11.73,1.51,1.51,0,0,0-2.95-.4,21.75,21.75,0,0,0-.63,14.93,1.51,1.51,0,0,0,2.95-.4l2.37-19.56c.16-1.31-1.73-2-2.56-1.06-2.55,2.75-7.36,13.83-.71,14.68,2.93.37,5.82-2.37,6.82-4.88.75-1.88.54-3.81.73-5.78a19.3,19.3,0,0,1,3.74-9.61l-2.74-1.16a114.28,114.28,0,0,0-4.36,24c-.13,1.74,2.47,2,2.95.4a39.11,39.11,0,0,0,1.62-14.86,1.51,1.51,0,0,0-2.8-.76,14.07,14.07,0,0,0-3,10.22c.14,1.6,2.5,2.14,2.95.4q3.06-12,5.68-24.18c.68-3.18,1.4-6.36,1.86-9.58a37.74,37.74,0,0,0,.46-5.49c0-.4-.79-8.57.86-7.8l-.69-1.69c-.86,4.06-1.86,8.06-3,12a1.51,1.51,0,0,0,2.74,1.16L812.8,148c1.75-2.71,4.3-5.34,3.26-8.69a1.52,1.52,0,0,0-2.74-.36l-13.26,18.9c-3.21,4.57-7.24,8.87-6.35,14.77.18,1.22,1.75,1.31,2.51.66a9.19,9.19,0,0,0,2.73-3.66h-2.59a19.47,19.47,0,0,1,3.65,9.1c.21,1.52,2.55,1.34,2.89,0a101.06,101.06,0,0,1,7.29-19.88c.71-1.45-1.13-3.13-2.36-1.82-5.75,6.18-8.27,14-10.53,22-.45,1.58,2.05,2.75,2.74,1.16a98.59,98.59,0,0,0,6.37-20.35,1.51,1.51,0,0,0-2.74-1.16,45.72,45.72,0,0,0-9.15,21.43l2.95.4,0-8.56a1.5,1.5,0,0,0-3,0Z" transform="translate(-472 -47.06)"/><path class="cls-4" d="M783.63,216l.14,3.18a4.54,4.54,0,0,0,8.39,2.27,95.93,95.93,0,0,0,6.44-11.94c2-4.24-3.67-9.76-7.07-5.45a72.7,72.7,0,0,0-11,19.37l8.68,2.39.51-.09-5.54-3.14c.22,1.21-2.05,5-2.5,6.06-.94,2.2-1.91,4.39-2.88,6.58-2.33,5.25,5.42,9.83,7.77,4.54,2.56-5.75,7.49-13.16,6.29-19.58-.45-2.39-3.35-3.75-5.54-3.14-3.44,1-6.09,2.7-6.8,6.38a4.5,4.5,0,0,0,8.68,2.39,58.7,58.7,0,0,1,8.71-15.4L790.82,205a95.93,95.93,0,0,1-6.44,11.94l8.39,2.27-.14-3.18c-.25-5.77-9.25-5.8-9,0Z" transform="translate(-472 -47.06)"/><path class="cls-4" d="M777.7,238.34c.72,6.8-2.1,12.63-5.13,18.54-2.64,5.15,5.13,9.7,7.77,4.54,3.7-7.22,7.24-14.76,6.36-23.09-.6-5.7-9.61-5.76-9,0Z" transform="translate(-472 -47.06)"/><path class="cls-4" d="M771.13,263.7c-.63,5.48-1.38,11.87-6.57,15l6.16,6.16c4.05-8.34,6.75-17.28,10.63-25.71a248.09,248.09,0,0,1,11.81-23.48l-8.22-3.47c-1.08,5-3.33,9.53-5.22,14.25a119.54,119.54,0,0,0-5.06,15.89c-1.39,5.62,7.29,8,8.68,2.39a118,118,0,0,1,5.06-15.89c1.9-4.72,4.14-9.24,5.22-14.25s-5.53-8-8.22-3.47a248.21,248.21,0,0,0-11.81,23.48c-3.88,8.42-6.59,17.39-10.63,25.71-1.88,3.87,2.06,8.59,6.16,6.16,8.25-4.9,10-13.85,11-22.72.66-5.74-8.35-5.7-9,0Z" transform="translate(-472 -47.06)"/><path class="cls-4" d="M869,206a74,74,0,0,1-3.94,24.12c-1.85,5.5,6.84,7.86,8.68,2.39A81.83,81.83,0,0,0,878,206c0-5.79-9-5.8-9,0Z" transform="translate(-472 -47.06)"/><path class="cls-4" d="M864.56,232.34c1.15,14.17-3.29,27.94-3.29,42.08h9c-.45-10.46,1.58-21.07,2.67-31.46q1.66-15.87,3-31.78c.48-5.77-8.52-5.74-9,0q-1.33,15.9-3,31.78c-1.09,10.39-3.12,21-2.67,31.46.25,5.76,9,5.82,9,0,0-14.14,4.45-27.9,3.29-42.08-.47-5.73-9.47-5.78-9,0Z" transform="translate(-472 -47.06)"/><path class="cls-4" d="M949.7,181.39c.82,5.48-3.83,11.3-6.21,16s-4.55,9.52-6.6,14.39c-2.24,5.33,6.47,7.66,8.68,2.39,2.69-6.4,5.86-12.5,9.1-18.63,2.85-5.39,4.62-10.37,3.71-16.5-.85-5.71-9.52-3.28-8.68,2.39Z" transform="translate(-472 -47.06)"/><path class="cls-4" d="M937.19,211c-4.21,8.15-10.63,14.81-14.86,23-2,3.79-4.78,6.78-6.91,10.39-2.24,3.8-1.88,7.91-1.19,12.09.73,4.46,7.7,4.12,8.68,0,1.6-6.72,7.43-8.88,11-14.22,4.24-6.3,7.7-13.28,11.48-19.86,3.47-6,7.5-12,10.08-18.51,2.83-7.12.65-12.9.46-20.16-.11-4.13-6.41-6.55-8.39-2.27-5,10.81-9.06,22-13,33.21-2,5.58-3.89,11.17-6,16.71-2.13,5.73-4,12.1-7.45,17.19-3.25,4.81,4.54,9.32,7.77,4.54s5-10.56,7-15.84c2.11-5.52,4.08-11.1,6-16.68,4.09-11.66,8.14-23.35,13.32-34.58L947,183.78c.09,3.45,1.05,6.72,1.3,10.14.27,3.77-1.06,7-2.78,10.29-3.33,6.34-7.13,12.47-10.69,18.68-3.13,5.45-5.93,12.85-10.66,17.1s-8.35,7.68-9.89,14.15h8.68c-.81-4.93,2-6.94,4.47-10.68,1.89-2.91,3.27-6.11,4.92-9.14,3.64-6.66,9.17-12,12.66-18.76,2.65-5.14-5.11-9.7-7.77-4.54Z" transform="translate(-472 -47.06)"/><path class="cls-4" d="M1008,251.33a123.63,123.63,0,0,1,10.79-56.77l-8.39-2.27c.85,8.67-1.34,17.91-3.28,26.32l8.84,1.2a98.58,98.58,0,0,1,.77-18.66c.54-4.68.3-14.42,3.92-17.93l-3.18,1.32,1.23-.1-3.18-1.32a8.69,8.69,0,0,0,2.59,1.83,4.75,4.75,0,0,0,5.45-.7c1.66-1.51,2.8-3.68,4-5.53l-7.77-4.54-6.11,14.46c-2.23,5.27,5.52,9.86,7.77,4.54l6.11-14.46c2.21-5.23-4.46-9.48-7.77-4.54a20.41,20.41,0,0,1-2.64,3.71l5.45-.7c-3.26-1.41-5.75-2.83-8.87.17s-3.85,8-4.49,12.19c-1.54,10-3.07,20.19-2.32,30.28.35,4.79,7.63,6.43,8.84,1.2,2.1-9.1,4.52-19.34,3.6-28.72-.38-3.92-6.34-6.78-8.39-2.27a133.43,133.43,0,0,0-12,61.31c.26,5.77,9.26,5.8,9,0Z" transform="translate(-472 -47.06)"/><path class="cls-4" d="M1021.6,179.85c.47-6.14,6.9-14.27,11.07-18.42,2.28-2.27,5-4.05,7.07-6.54,1.49-1.79,2.58-5.48,4.64-6.54l-6.16-6.16q-11.19,17.21-21,35.25c-2.77,5.09,5,9.64,7.77,4.54q9.8-18,21-35.25c2.6-4-2.39-8.09-6.16-6.16-3.08,1.58-4.18,4.18-5.92,7-2.45,3.92-6.82,6.38-9.82,9.91-5.14,6-10.87,14.3-11.5,22.39-.44,5.78,8.56,5.75,9,0Z" transform="translate(-472 -47.06)"/><path class="cls-4" d="M1089.19,202.1c-2.6,7-5.22,13.94-6.8,21.21-1.61,7.42-1.69,14.84-1.88,22.39-.19,7.34-.92,14.68.36,22a28.13,28.13,0,0,0,2.81,8.35c1.65,3.13,3.93,5.69,4.72,9.21l4.34-5.7c1.71-.12-1-3.46-1.41-4.23-.87-1.62-1.67-3.27-2.4-5a68.11,68.11,0,0,1-3.65-11c-1.9-7.88-2.36-15.85,0-23.67l-8.84-1.2c-1.84,15.35-2.83,31.23,3.09,45.87,2.14,5.3,10.85,3,8.68-2.39-5.64-13.95-4.52-28.86-2.77-43.48.62-5.18-7.43-5.87-8.84-1.2-3.22,10.69-2.09,22.1,1.16,32.65a78.67,78.67,0,0,0,6.21,14.68c1.9,3.46,4.13,8.24,8.77,7.92a4.57,4.57,0,0,0,4.34-5.7c-1.28-5.66-5.66-9.73-7.08-15.3-1.8-7-.67-14.69-.49-21.84s.17-14,1.77-20.9a162.31,162.31,0,0,1,6.59-20.3c2-5.43-6.67-7.78-8.68-2.39Z" transform="translate(-472 -47.06)"/><path class="cls-4" d="M1162.9,278.67a70,70,0,0,1,1.56-19.75c1.6-6.55,3.33-13.07,5-19.6a168.73,168.73,0,0,1,5.34-18.18c1.14-3,2.46-5.92,3.87-8.79s2.92-7,5.11-9.56l-3.18,1.32,1-.05-3.18-7.68c-6.55,7-9.73,16.14-13,25q-2.59,7.1-4.78,14.33-1.23,4.07-2.33,8.17c-.28,1-1.2,6.17-1.47,6.31l6.77,3.89a81.78,81.78,0,0,1,7.78-34.79L1163,217c.5,6.57-2.88,14.5-4.44,20.89l-5.05,20.68c-1.37,5.63,7.3,8,8.68,2.39l5.51-22.56c1.63-6.68,4.83-14.47,4.3-21.4-.31-4-6.31-6.66-8.39-2.27a92.32,92.32,0,0,0-9,39.34,4.55,4.55,0,0,0,6.77,3.89c3.76-2,4.15-6.12,5.13-9.87q2.15-8.23,4.81-16.3c3.21-9.75,6.27-21.41,13.43-29,2.52-2.69.88-7.9-3.18-7.68-6.49.35-9.07,9.34-11.46,14.37a127,127,0,0,0-8,22.21c-4.12,15.62-8.84,30.76-8.24,47,.21,5.77,9.21,5.8,9,0Z" transform="translate(-472 -47.06)"/><path class="cls-4" d="M1187.27,198.74c1.53-2.77,4.92-5.06,7.47-6.83a57.81,57.81,0,0,1,9.16-5.12c5.27-2.38.7-10.14-4.54-7.77-7,3.15-16,8.25-19.86,15.17-2.8,5.08,5,9.62,7.77,4.54Z" transform="translate(-472 -47.06)"/></svg>