<svg id="Livello_1" data-name="Livello 1" xmlns="http://www.w3.org/2000/svg" viewBox="0 0 800 438.41"><defs><style>.cls-1,.cls-14,.cls-4{fill:#1190cb;}.cls-1,.cls-13{stroke:#1190cb;}.cls-1,.cls-13,.cls-2,.cls-3{stroke-miterlimit:10;}.cls-1,.cls-2,.cls-3{stroke-width:5px;}.cls-2{fill:none;}.cls-2,.cls-3{stroke:#fff;}.cls-3{fill:#fff;}.cls-5{font-size:76.12px;fill:#252728;font-family:Barlow-Medium, Barlow;letter-spacing:0em;}.cls-6{letter-spacing:0em;}.cls-7{letter-spacing:0em;}.cls-8{letter-spacing:0em;}.cls-9{letter-spacing:0em;}.cls-10{letter-spacing:-0.02em;}.cls-11{letter-spacing:0.01em;}.cls-12{letter-spacing:-0.01em;}.cls-13{stroke-width:4px;}.cls-14{font-size:230.12px;font-family:KGHardCandySolidW00-Regular, KGHardCandySolidW00-Regular;}.cls-15{letter-spacing:-0.01em;}</style></defs><title>giulia-gallo-s6-2</title><path class="cls-1" d="M779.8,117.16C778.25,93.38,768.48,73.43,750,58.32,726,38.6,698.28,32.51,668,39.12S621.6,70.7,627.31,100.92C631.11,121,640,139,651.53,155.73c1.8,2.6,3.83,5.07,4.82,8.15.64,2,.35,3.28-1.86,4.15a153.43,153.43,0,0,1-15.67,5.24,47,47,0,0,0-15,6.77c-1.21.86-2.72,1.67-2.46,3.51s2,2.22,3.36,2.7a66.94,66.94,0,0,0,12.92,2.8c9.82,1.38,19.77,2.21,28.93,6.55,2.28,1.08,4.12,2.3,5.16,4.92,7.62,19.12,9.74,38.55,5,58.81-1.19,5.11-2.59,10.15-4.11,15.14,11.66-.44,23.31-.87,35-.9,7.13,0,14.2.21,21.33.41.47,0,.95,0,1.42,0-.22-.45-.45-.9-.66-1.37-5.12-11.15-5.42-23-6.12-34.82-1.11-18.6-1.31-37.31-5.9-55.52-2.59-10.28-6-20.37-8.3-30.71-3.28-14.59,6.57-23.71,21.13-20.12,9.54,2.35,17.34,7.62,24.42,14.17,3,2.81,5.87,5.91,9.2,8.34,9,6.55,11.83,5.42,14.23-5.45C780.63,138.18,780.49,127.64,779.8,117.16Z" transform="translate(-478 -34.06)"/><path class="cls-1" d="M657.54,204.05c4.9,10.34,8.87,20.36,9.16,31.44a32.62,32.62,0,0,1-1.81,11.85c-2,5.66-5.31,9.87-11.72,10.2s-12-1.93-15.68-7.6c-5.18-8-3.88-22.52,3.15-30C645.85,214.45,651.7,209.52,657.54,204.05Z" transform="translate(-478 -34.06)"/><path class="cls-2" d="M702.56,171.73c-.05,8-7,15-14.78,15s-15.23-7.35-15.27-15.16,7.42-15,15.42-14.85A15.15,15.15,0,0,1,702.56,171.73Z" transform="translate(-478 -34.06)"/><path class="cls-3" d="M761.33,124.5a8.84,8.84,0,1,1,9.08-8.82A8.83,8.83,0,0,1,761.33,124.5Z" transform="translate(-478 -34.06)"/><path class="cls-3" d="M756.41,92.19a6.9,6.9,0,0,1-13.79-.4,6.9,6.9,0,0,1,13.79.4Z" transform="translate(-478 -34.06)"/><path class="cls-4" d="M687.33,163.85A7.44,7.44,0,0,1,695,171a7.35,7.35,0,0,1-7.36,7.79,7.47,7.47,0,1,1-.28-14.93Z" transform="translate(-478 -34.06)"/><path d="M492.87,134.64a18.9,18.9,0,0,1-12.32-5.95l-.42-.42a29.2,29.2,0,0,1-2.12-10.2c0-2.12.42-4.67.42-6.8v-5.52a14.85,14.85,0,0,1,3.4-9.35,20,20,0,0,1,6.37-5.52c.42-.42.85-.42,1.7-.42a7.23,7.23,0,0,1,3-.42,15.32,15.32,0,0,1,8.5,2.55,36.69,36.69,0,0,1,5.95,5.52,16.17,16.17,0,0,1,3.4,7.22c.42,3,.85,5.52,1.27,8.5a17,17,0,0,1-1.27,6.37,29.55,29.55,0,0,1-9.77,11.9A9.81,9.81,0,0,1,492.87,134.64ZM479.7,106.18c1.27,0,1.7-1.27,2.12-2.12a3.27,3.27,0,0,1,1.27-.85c.42.42.85.85.85,1.27a3.83,3.83,0,0,1-.42,2.12,17.76,17.76,0,0,0-1.7,4.25,30.09,30.09,0,0,0,0,12.32,8.26,8.26,0,0,0,3.82,5.95,13.17,13.17,0,0,0,5.52,2.55c2.55.42,5.1.42,7.22-.85a12.49,12.49,0,0,0,5.1-4.25c1.27-1.27,2.12-2.55,3.4-3.82.85-1.7,1.7-3.82,2.55-5.52.42-1.27.42-2.55.85-3.82a24.74,24.74,0,0,0-1.27-8.07,8.54,8.54,0,0,0-1.7-3.4,34.33,34.33,0,0,0-6.8-6.8,12.72,12.72,0,0,0-3.4-1.7c-2.12-.85-3.82,0-5.95,0a13.29,13.29,0,0,0-4.25,2.12,38.31,38.31,0,0,0-3.82,4.25A7,7,0,0,0,479.7,106.18Z" transform="translate(-478 -34.06)"/><path d="M544.28,106.6a10.15,10.15,0,0,0,3,1.27,3.33,3.33,0,0,0,3.4.42,2.19,2.19,0,0,1,3,1.27V110a15.1,15.1,0,0,1,.85,4.25,14.3,14.3,0,0,0,5.1,11c.85.85,2.12,1.7,3,2.55s1.27,1.27.42,2.12c-.42.42-1.27.85-1.7.42l-.42-.42-5.52-4.67-.42-.42c-.85-1.7-1.7-1.7-3-.42-.42.42-.85,1.27-1.27,1.7a9.61,9.61,0,0,1-9.77,3.4c-.85,0-2.12-.42-3-.42a5.15,5.15,0,0,1-3.4-5.52,12.13,12.13,0,0,0,0-5.52,7.23,7.23,0,0,1,.42-3,16.1,16.1,0,0,1,2.55-5.52A8.45,8.45,0,0,1,544.28,106.6Zm0,2.55a7,7,0,0,0-5.1,2.12,5.93,5.93,0,0,0-1.27,6.37c0,1.27.85,2.55.85,3.82,1.27,4.67,3.82,5.1,7.22,4.25a2.21,2.21,0,0,0,1.7-.85,15.26,15.26,0,0,0,3-4.25c0-.42.42-.85.42-1.27a28.69,28.69,0,0,0-.85-5.95c-1.27-2.55-3.4-4.25-5.95-4.25Z" transform="translate(-478 -34.06)"/><path d="M603.33,178c0,2.12-.85,3-2.55,1.7l-5.1-3c-.42,0-.42-.42-.85-.85a9.93,9.93,0,0,0-3-3l-2.55-2.55c-1.27-.85-2.55-2.12-3.82-3a14.42,14.42,0,0,1-2.55-2.55c-.85-.85-.42-.85-.85-.85a8.34,8.34,0,0,1-3.82-3.82c-.85-1.27-2.12-2.12-3-3.4a1.56,1.56,0,0,1-.42-1.27,6,6,0,0,1,.85-2.55c.42-.42,1.27,0,1.7.42s.42.85.85.85a.42.42,0,0,1,.42.42c1.27.42,1.7,1.7,2.55,2.55a45,45,0,0,0,5.1,4.25,48.91,48.91,0,0,1,7.22,5.95c.85.85,1.7.85,2.55,1.7.85.42,1.27,1.27,2.12,1.7,1.27.85,2.12,2.12,3.4,3S603.33,176.7,603.33,178Z" transform="translate(-478 -34.06)"/><path d="M519.21,112.55c.42-5.95.42-11,.85-15.72a57.58,57.58,0,0,1,.85-8.5,7.88,7.88,0,0,1,.85-3c0-.42.85-.42,1.27-.85.42.42.85.85.85,1.27-.42,2.55-.42,5.1-.85,8.07-.42,4.25-.42,8.5-.42,12.75,0,2.12-.42,3.82,0,5.95a46.82,46.82,0,0,0,.85,7.65,45.3,45.3,0,0,0,3,8.07c.85,1.7,2.55,1.7,4.25,1.27a1.31,1.31,0,1,1,2.12,1.27,5.56,5.56,0,0,1-8.07.85l-1.27-1.27a28.33,28.33,0,0,1-3.82-8.92A51.69,51.69,0,0,0,519.21,112.55Z" transform="translate(-478 -34.06)"/><path d="M578.27,78.56c.42,2.55.42,5.1.85,8.07a49.06,49.06,0,0,1,.85,6.8c0,1.27.42,2.55.42,3.82a15.93,15.93,0,0,1-.42,4.67c0,.42-.42.42-.42.85s-.85-.42-.85-.85c-.42-1.27-.42-2.55-.85-4.25-.42-2.55-.85-5.52-1.27-8.07,0-.85-.42-2.12-.42-3.4V83.66a26.13,26.13,0,0,1,.42-5.95,1.56,1.56,0,0,1,.42-1.27c.42-.42.85-.42.85-.85.42.42.42.85.85,1.7A1.56,1.56,0,0,0,578.27,78.56Z" transform="translate(-478 -34.06)"/><path d="M557,86.63c-.42.42-.42,1.27-.85,2.12-1.27,2.55-2.12,4.67-3.4,7.22a8.65,8.65,0,0,1-2.55,3c-.42.42-.85.42-1.7.42a2.55,2.55,0,0,1-.42-1.7c0-.85.42-1.27.85-2.12,1.7-2.55,3-5.52,4.67-8.07.42-.85,1.27-1.27,1.7-2.12C556.17,85.36,557,85.78,557,86.63Z" transform="translate(-478 -34.06)"/><path d="M583.36,128.69a1.83,1.83,0,0,1-1.7-1.7,1.94,1.94,0,0,1,1.7-2.12c.85,0,2.12.42,2.12,1.7a2.73,2.73,0,0,1-2.12,2.12Z" transform="translate(-478 -34.06)"/><text class="cls-5" transform="translate(148.71 352.17) scale(1.01 1)">C<tspan class="cls-6" x="46.2" y="0">o</tspan><tspan class="cls-7" x="88.52" y="0">r</tspan><tspan class="cls-8" x="116.46" y="0">si di Lingua e </tspan><tspan class="cls-8"><tspan x="0" y="69.43">Cultu</tspan><tspan class="cls-9" x="174.68" y="69.43">r</tspan><tspan class="cls-6" x="202.69" y="69.43">a </tspan><tspan class="cls-10" x="257.42" y="69.43">P</tspan><tspan class="cls-6" x="300.96" y="69.43">o</tspan><tspan class="cls-11" x="343.28" y="69.43">r</tspan><tspan class="cls-12" x="372.43" y="69.43">t</tspan><tspan class="cls-6" x="399.67" y="69.43">oghese</tspan></tspan></text><line class="cls-13" x1="143.8" y1="273.76" x2="798.22" y2="273.76"/><text class="cls-14" transform="translate(256 240.43)">Lisb<tspan class="cls-15" x="361.98" y="0">o</tspan><tspan x="445.97" y="0">a</tspan></text></svg>