<svg id="Livello_1" data-name="Livello 1" xmlns="http://www.w3.org/2000/svg" viewBox="0 0 138.89 129.22"><defs><style>.cls-1{fill:#37a8d2;}.cls-2{fill:#fff;stroke:#fff;stroke-linecap:round;stroke-miterlimit:10;}.cls-3{fill:#1190cb;}</style></defs><title>gallonero2</title><path d="M425.1,236.9l3.2,5.9-6.4-5.4-1.4.3a37.37,37.37,0,0,0,1.7,5.7,31.76,31.76,0,0,0,2.8,4.3l3.3-4.9c3.5,4.8,3.8,13.1.4,19-1.6-1.2-3-2.4-4.6-3.4a31.35,31.35,0,0,0-6.4-3.7c-4.2-1.5-6.8,1-6.2,5.4,1.5,9.5,2.9,19,4.3,28.5,1,6.6,3.8,9.7,9.2,9.7s8.2-3,9.3-9.7a57.68,57.68,0,0,1,2.1-10.2A19.72,19.72,0,0,1,457.1,265c10.5,1.3,19.4,9.9,20.2,19.2,1.1,11.4-4.9,19.3-12.7,26.3-2.6,2.4-3.8.4-4.3-2.1-.6-3.3-.9-6.6-1.7-9.8-1-4.1-3.4-7.1-8.1-6.3s-6.7,4-7.1,8.4c-.1,2.2-.1,4.3,0,6.5.2,9.4-3.3,17.2-10,23.6-6.4,6.2-6.1,10.5,1.2,15.7,2.2,1.5,4.6,2.6,6.8,4.1,2.8,1.9,2.3,3.8-.6,5.2a7,7,0,0,1-2.9.9c-11.8.1-23.5.2-35.3.1a8.23,8.23,0,0,1-3.7-1.3c-1-.6-2.4-1.7-2.5-2.6s1.3-2.1,2.3-2.8c2.5-1.7,5.3-2.9,7.6-4.8,5-4.1,5.5-8.8,1.8-14.1-2.1-3-4.6-5.7-6.9-8.5-5.1-6-6.2-12.6-3.3-20a95.83,95.83,0,0,0,4.3-13.8,26.39,26.39,0,0,0,.4-8.4c-.7-7.8-1.8-8.8-9.5-10.2l-5.7-1.2-.2-1.3,9.4-4.2c-2-3.8-4.1-7.4-5.8-11.1-2.8-6.3-4.3-12.9.7-18.9,5.2-6.2,12.6-7,19.7-5,4.7,1.4,8.8,4.9,13.1,7.4Zm-21.9,24.5c-3.5,2.3-2.7,4.5,0,6.8,3.8,2.2,5.4,1.2,6.6-3.9-1-1.1-1.6-2.5-2.6-2.9S404.6,261.3,403.2,261.4Z" transform="translate(-338.54 -227.62)"/><path d="M397.9,273.9a9.66,9.66,0,0,0,.3,1.8c.3,1.5.7,2.9,1,4.4s.7,3.8-.2,5.1a10.48,10.48,0,0,1-2,2.2,1.91,1.91,0,0,1-1,.5,2.77,2.77,0,0,1-.9-.1,6.83,6.83,0,0,1-3.2-1.8c-1.7-1.9-.9-4.2.1-6.2.7-1.4,1.6-2.7,2.4-4a14,14,0,0,1,2.8-3.6h.1a.1.1,0,0,1,.1.1A6,6,0,0,1,397.9,273.9Z" transform="translate(-338.54 -227.62)"/><path class="cls-1" d="M425.1,236.9l-.9-1Z" transform="translate(-338.54 -227.62)"/><path d="M430,246.6l-4,9.3a1.54,1.54,0,0,1-2.8,0c-1.1-2.4-2.2-5-3.1-7.6,0-.1,0-.1-.1-.2-1-4.2-1.9-8.5-2.6-12.9a1.55,1.55,0,0,1,1-1.7h0a1.57,1.57,0,0,1,1.7.5l9.9,12.6Z" transform="translate(-338.54 -227.62)"/><path d="M396.5,260.2c3,0,6.4-.6,9,0s3.8,2.6,6,4.2c-2.8,7.2-6.4,8.7-14.8,5.5l4.8-2.6-2.9-.3,1.3-6.2Z" transform="translate(-338.54 -227.62)"/><circle class="cls-2" cx="81.66" cy="10.38" r="1.5"/><circle class="cls-2" cx="85.16" cy="15.08" r="1.9"/><circle class="cls-2" cx="65.46" cy="35.68" r="4"/><circle class="cls-2" cx="73.86" cy="69.18" r="2.2"/><circle class="cls-2" cx="71.66" cy="74.78" r="2.2"/><circle class="cls-2" cx="71.66" cy="80.98" r="2.2"/><circle class="cls-2" cx="74.66" cy="86.48" r="2.2"/><circle class="cls-2" cx="79.66" cy="89.18" r="2.2"/><circle class="cls-2" cx="85.56" cy="88.68" r="2.2"/><circle class="cls-2" cx="90.56" cy="84.78" r="2.2"/><circle class="cls-2" cx="92.76" cy="78.78" r="2.2"/><circle class="cls-2" cx="92.26" cy="72.78" r="2.2"/><circle cx="65.46" cy="35.68" r="2.3"/><path class="cls-3" d="M423.7,238a8.48,8.48,0,0,0,1,1.9,14.31,14.31,0,0,1,1.1,1.5c.1.1.2.3.3.4a.44.44,0,0,0,.5.1.66.66,0,0,0,.4-.5,1.7,1.7,0,0,0-.2-1.4,2.73,2.73,0,0,0-1.2-.9c-.4-.2-.7-.4-1.1-.6-.1,0-.1-.1-.2,0v.1c0,.1-.1.2-.3.2" transform="translate(-338.54 -227.62)"/><path class="cls-3" d="M428,242.2a1.5,1.5,0,0,0-.9-.7.66.66,0,0,0-.6.1.1.1,0,0,0-.1.1v.2a2.44,2.44,0,0,0,1.5,2.6C428.9,244.5,428.5,242.9,428,242.2Z" transform="translate(-338.54 -227.62)"/><path d="M418.4,249.7a3.69,3.69,0,0,1,3.5,1.1c1.5,1.4,2.3,3.8,3.1,6s2.1,4.4,3.8,4.9a1.38,1.38,0,0,0,1.6-.4,2.65,2.65,0,0,0,.7-1.4c1.1-3,1-6.6.9-10" transform="translate(-338.54 -227.62)"/><ellipse cx="420.31" cy="241.71" rx="6.7" ry="15.8" transform="translate(-390.99 121.71) rotate(-42.73)"/><circle class="cls-3" cx="96.56" cy="3.18"/><ellipse class="cls-2" cx="88.06" cy="18.28" rx="1.9" ry="2"/><circle class="cls-2" cx="85.16" cy="13.18" r="1.7"/><path d="M343.67,252.13a6.52,6.52,0,0,1-4.25-2.05l-.15-.15a10.08,10.08,0,0,1-.73-3.52c0-.73.15-1.61.15-2.35v-1.91a5.12,5.12,0,0,1,1.17-3.23,6.9,6.9,0,0,1,2.2-1.91c.15-.15.29-.15.59-.15a2.49,2.49,0,0,1,1-.15,5.29,5.29,0,0,1,2.93.88,12.66,12.66,0,0,1,2.05,1.91,5.58,5.58,0,0,1,1.17,2.49c.15,1,.29,1.91.44,2.93a5.88,5.88,0,0,1-.44,2.2,10.2,10.2,0,0,1-3.37,4.1A3.38,3.38,0,0,1,343.67,252.13Zm-4.54-9.82c.44,0,.59-.44.73-.73a1.13,1.13,0,0,1,.44-.29c.15.15.29.29.29.44a1.32,1.32,0,0,1-.15.73,6.13,6.13,0,0,0-.59,1.47,10.38,10.38,0,0,0,0,4.25,2.85,2.85,0,0,0,1.32,2.05,4.54,4.54,0,0,0,1.91.88,3.61,3.61,0,0,0,2.49-.29,4.31,4.31,0,0,0,1.76-1.47c.44-.44.73-.88,1.17-1.32s.59-1.32.88-1.91.15-.88.29-1.32a8.54,8.54,0,0,0-.44-2.79,3,3,0,0,0-.59-1.17,11.85,11.85,0,0,0-2.35-2.35,4.39,4.39,0,0,0-1.17-.59c-.73-.29-1.32,0-2.05,0a4.59,4.59,0,0,0-1.47.73,13.22,13.22,0,0,0-1.32,1.47A2.43,2.43,0,0,0,339.13,242.3Z" transform="translate(-338.54 -227.62)"/><path d="M361.41,242.45a3.5,3.5,0,0,0,1,.44,1.15,1.15,0,0,0,1.17.15.76.76,0,0,1,1,.44v.15a5.21,5.21,0,0,1,.29,1.47,4.94,4.94,0,0,0,1.76,3.81c.29.29.73.59,1,.88s.44.44.15.73-.44.29-.59.15l-.15-.15-1.91-1.61-.15-.15c-.29-.59-.59-.59-1-.15-.15.15-.29.44-.44.59a3.32,3.32,0,0,1-3.37,1.17c-.29,0-.73-.15-1-.15a1.78,1.78,0,0,1-1.17-1.91,4.18,4.18,0,0,0,0-1.91,2.49,2.49,0,0,1,.15-1,5.56,5.56,0,0,1,.88-1.91A2.92,2.92,0,0,1,361.41,242.45Zm0,.88a2.43,2.43,0,0,0-1.76.73,2,2,0,0,0-.44,2.2c0,.44.29.88.29,1.32.44,1.61,1.32,1.76,2.49,1.47a.76.76,0,0,0,.59-.29,5.27,5.27,0,0,0,1-1.47c0-.15.15-.29.15-.44a9.9,9.9,0,0,0-.29-2.05,2.36,2.36,0,0,0-2.05-1.47Z" transform="translate(-338.54 -227.62)"/><path d="M381.79,267.08c0,.73-.29,1-.88.59l-1.76-1c-.15,0-.15-.15-.29-.29a3.43,3.43,0,0,0-1-1l-.88-.88c-.44-.29-.88-.73-1.32-1a5,5,0,0,1-.88-.88c-.29-.29-.15-.29-.29-.29a2.88,2.88,0,0,1-1.32-1.32c-.29-.44-.73-.73-1-1.17a.54.54,0,0,1-.15-.44,2.08,2.08,0,0,1,.29-.88c.15-.15.44,0,.59.15s.15.29.29.29a.14.14,0,0,1,.15.15c.44.15.59.59.88.88a15.53,15.53,0,0,0,1.76,1.47,16.88,16.88,0,0,1,2.49,2.05c.29.29.59.29.88.59s.44.44.73.59.73.73,1.17,1A1.88,1.88,0,0,1,381.79,267.08Z" transform="translate(-338.54 -227.62)"/><path d="M352.76,244.5c.15-2.05.15-3.81.29-5.42a19.87,19.87,0,0,1,.29-2.93,2.72,2.72,0,0,1,.29-1c0-.15.29-.15.44-.29.15.15.29.29.29.44-.15.88-.15,1.76-.29,2.79-.15,1.47-.15,2.93-.15,4.4a9.61,9.61,0,0,0,0,2.05,16.15,16.15,0,0,0,.29,2.64,15.63,15.63,0,0,0,1,2.79c.29.59.88.59,1.47.44a.45.45,0,1,1,.73.44,1.92,1.92,0,0,1-2.79.29l-.44-.44a9.77,9.77,0,0,1-1.32-3.08A17.84,17.84,0,0,0,352.76,244.5Z" transform="translate(-338.54 -227.62)"/><path d="M373.14,232.77c.15.88.15,1.76.29,2.79a16.93,16.93,0,0,1,.29,2.35c0,.44.15.88.15,1.32a5.5,5.5,0,0,1-.15,1.61c0,.15-.15.15-.15.29s-.29-.15-.29-.29c-.15-.44-.15-.88-.29-1.47-.15-.88-.29-1.91-.44-2.79,0-.29-.15-.73-.15-1.17v-.88a9,9,0,0,1,.15-2.05.54.54,0,0,1,.15-.44c.15-.15.29-.15.29-.29.15.15.15.29.29.59A.54.54,0,0,0,373.14,232.77Z" transform="translate(-338.54 -227.62)"/><path d="M365.81,235.56c-.15.15-.15.44-.29.73-.44.88-.73,1.61-1.17,2.49a3,3,0,0,1-.88,1c-.15.15-.29.15-.59.15a.88.88,0,0,1-.15-.59c0-.29.15-.44.29-.73.59-.88,1-1.91,1.61-2.79.15-.29.44-.44.59-.73C365.52,235.12,365.81,235.27,365.81,235.56Z" transform="translate(-338.54 -227.62)"/><path d="M374.9,250.07a.63.63,0,0,1-.59-.59.67.67,0,0,1,.59-.73c.29,0,.73.15.73.59a.94.94,0,0,1-.73.73Z" transform="translate(-338.54 -227.62)"/></svg>