<svg id="Livello_1" data-name="Livello 1" xmlns="http://www.w3.org/2000/svg" viewBox="0 0 304.75 243.04"><defs><style>.cls-1,.cls-4{stroke:#000;}.cls-1,.cls-2,.cls-3,.cls-4{stroke-miterlimit:10;}.cls-1,.cls-2,.cls-3{stroke-width:5px;}.cls-2{fill:none;}.cls-2,.cls-3{stroke:#1190cb;}.cls-3{fill:#1190cb;}</style></defs><title>galloneroblu</title><path class="cls-1" d="M301.79,83.1c-1.55-23.78-11.32-43.73-29.8-58.84C248,4.54,220.27-1.55,190,5.06s-46.4,31.58-40.69,61.8c3.8,20.08,12.69,38.08,24.22,54.81,1.8,2.6,3.83,5.07,4.82,8.15.64,2,.35,3.28-1.86,4.15a153.43,153.43,0,0,1-15.67,5.24,47,47,0,0,0-15,6.77c-1.21.86-2.72,1.67-2.46,3.51s2,2.22,3.36,2.7a66.94,66.94,0,0,0,12.92,2.8c9.82,1.38,19.77,2.21,28.93,6.55,2.28,1.08,4.12,2.3,5.16,4.92,7.62,19.12,9.74,38.55,5,58.81-1.19,5.11-2.59,10.15-4.11,15.14,11.66-.44,23.31-.87,35-.9,7.13,0,14.2.21,21.33.41h1.42c-.22-.45-.45-.9-.66-1.37-5.12-11.15-5.42-23-6.12-34.82-1.11-18.6-1.31-37.31-5.9-55.52-2.59-10.28-6-20.37-8.3-30.71-3.28-14.59,6.57-23.71,21.13-20.12,9.54,2.35,17.34,7.62,24.42,14.17,3,2.81,5.87,5.91,9.2,8.34,9,6.55,11.83,5.42,14.23-5.45C302.62,104.12,302.48,93.58,301.79,83.1Z" transform="translate(0.01 0)"/><path class="cls-1" d="M179.53,170c4.9,10.34,8.87,20.36,9.16,31.44a32.62,32.62,0,0,1-1.81,11.85c-2,5.66-5.31,9.87-11.72,10.2s-12-1.93-15.68-7.6c-5.18-8-3.88-22.52,3.15-30C167.84,180.39,173.69,175.46,179.53,170Z" transform="translate(0.01 0)"/><path class="cls-2" d="M224.55,137.67c0,8-7,15-14.78,15s-15.23-7.35-15.27-15.16,7.42-15,15.42-14.85A15.15,15.15,0,0,1,224.55,137.67Z" transform="translate(0.01 0)"/><path class="cls-3" d="M283.32,90.44a8.83,8.83,0,1,1,.24,0Z" transform="translate(0.01 0)"/><path class="cls-3" d="M278.4,58.13a6.9,6.9,0,1,1-6.87-6.93h.34A6.9,6.9,0,0,1,278.4,58.13Z" transform="translate(0.01 0)"/><path class="cls-4" d="M209.32,129.79a7.44,7.44,0,0,1,7.67,7.15,7.35,7.35,0,0,1-6.89,7.78h-.47a7.47,7.47,0,0,1-.94-14.91h.63Z" transform="translate(0.01 0)"/><path d="M14.86,100.58A18.9,18.9,0,0,1,2.54,94.63l-.42-.42A29.2,29.2,0,0,1,0,84c0-2.12.42-4.67.42-6.8V71.68a14.85,14.85,0,0,1,3.4-9.35,20,20,0,0,1,6.37-5.52c.42-.42.85-.42,1.7-.42a7.23,7.23,0,0,1,3-.42,15.32,15.32,0,0,1,8.5,2.55,36.69,36.69,0,0,1,6,5.52,16.17,16.17,0,0,1,3.4,7.22c.42,3,.85,5.52,1.27,8.5a17,17,0,0,1-1.27,6.37A29.55,29.55,0,0,1,23,98,9.81,9.81,0,0,1,14.86,100.58ZM1.69,72.12c1.27,0,1.7-1.27,2.12-2.12a3.27,3.27,0,0,1,1.27-.85c.42.42.85.85.85,1.27a3.83,3.83,0,0,1-.42,2.12,17.76,17.76,0,0,0-1.7,4.25,30.09,30.09,0,0,0,0,12.32,8.26,8.26,0,0,0,3.82,5.95,13.17,13.17,0,0,0,5.52,2.55c2.55.42,5.1.42,7.22-.85a12.49,12.49,0,0,0,5.1-4.25c1.27-1.27,2.12-2.55,3.4-3.82.85-1.7,1.7-3.82,2.55-5.52.42-1.27.42-2.55.85-3.82A24.74,24.74,0,0,0,31,71.28a8.54,8.54,0,0,0-1.7-3.4,34.33,34.33,0,0,0-6.8-6.8,12.72,12.72,0,0,0-3.4-1.7c-2.12-.85-3.82,0-6,0A13.29,13.29,0,0,0,8.84,61.5,38.31,38.31,0,0,0,5,65.75,7,7,0,0,0,1.69,72.12Z" transform="translate(0.01 0)"/><path d="M66.27,72.54a10.15,10.15,0,0,0,3,1.27,3.33,3.33,0,0,0,3.4.42,2.19,2.19,0,0,1,3,1.27v.44a15.1,15.1,0,0,1,.85,4.25,14.3,14.3,0,0,0,5.1,11c.85.85,2.12,1.7,3,2.55S85.89,95,85,95.86c-.42.42-1.27.85-1.7.42l-.42-.42L77.4,91.19,77,90.77c-.85-1.7-1.7-1.7-3-.42-.42.42-.85,1.27-1.27,1.7a9.61,9.61,0,0,1-9.77,3.4c-.85,0-2.12-.42-3-.42a5.15,5.15,0,0,1-3.4-5.52,12.13,12.13,0,0,0,0-5.52A7.23,7.23,0,0,1,57,81a16.1,16.1,0,0,1,2.55-5.52A8.45,8.45,0,0,1,66.27,72.54Zm0,2.55a7,7,0,0,0-5.1,2.12,5.93,5.93,0,0,0-1.27,6.37c0,1.27.85,2.55.85,3.82C62,92.07,64.57,92.5,68,91.65a2.21,2.21,0,0,0,1.7-.85,15.26,15.26,0,0,0,3-4.25c0-.42.42-.85.42-1.27a28.69,28.69,0,0,0-.85-5.95c-1.27-2.55-3.4-4.25-6-4.25Z" transform="translate(0.01 0)"/><path d="M125.32,143.94c0,2.12-.85,3-2.55,1.7l-5.1-3c-.42,0-.42-.42-.85-.85a9.93,9.93,0,0,0-3-3l-2.55-2.55c-1.27-.85-2.55-2.12-3.82-3a14.42,14.42,0,0,1-2.55-2.55c-.85-.85-.42-.85-.85-.85a8.34,8.34,0,0,1-3.82-3.82c-.85-1.27-2.12-2.12-3-3.4a1.56,1.56,0,0,1-.42-1.27,6,6,0,0,1,.85-2.55c.42-.42,1.27,0,1.7.42s.42.85.85.85a.42.42,0,0,1,.42.42c1.27.42,1.7,1.7,2.55,2.55a45,45,0,0,0,5.1,4.25,48.91,48.91,0,0,1,7.22,5.95c.85.85,1.7.85,2.55,1.7.85.42,1.27,1.27,2.12,1.7,1.27.85,2.12,2.12,3.4,3S125.32,142.64,125.32,143.94Z" transform="translate(0.01 0)"/><path d="M41.2,78.49c.42-5.95.42-11,.85-15.72a57.58,57.58,0,0,1,.85-8.5,7.88,7.88,0,0,1,.85-3c0-.42.85-.42,1.27-.85.42.42.85.85.85,1.27-.42,2.55-.42,5.1-.85,8.07-.42,4.25-.42,8.5-.42,12.75,0,2.12-.42,3.82,0,5.95a46.82,46.82,0,0,0,.85,7.65,45.3,45.3,0,0,0,3,8.07c.85,1.7,2.55,1.7,4.25,1.27a1.31,1.31,0,1,1,2.12,1.27A5.56,5.56,0,0,1,47,97.84l0,0-.28-.23L45.44,96.3a28.33,28.33,0,0,1-3.82-8.92A51.7,51.7,0,0,0,41.2,78.49Z" transform="translate(0.01 0)"/><path d="M100.26,44.5c.42,2.55.42,5.1.85,8.07a49.06,49.06,0,0,1,.85,6.8c0,1.27.42,2.55.42,3.82a15.93,15.93,0,0,1-.42,4.67c0,.42-.42.42-.42.85s-.85-.42-.85-.85c-.42-1.27-.42-2.55-.85-4.25-.42-2.55-.85-5.52-1.27-8.07,0-.85-.42-2.12-.42-3.4V49.6a26.13,26.13,0,0,1,.42-5.95A1.56,1.56,0,0,1,99,42.38c.42-.42.85-.42.85-.85.42.42.42.85.85,1.7A1.56,1.56,0,0,0,100.26,44.5Z" transform="translate(0.01 0)"/><path d="M79,52.57c-.42.42-.42,1.27-.85,2.12-1.27,2.55-2.12,4.67-3.4,7.22a8.65,8.65,0,0,1-2.55,3c-.42.42-.85.42-1.7.42a2.55,2.55,0,0,1-.42-1.7c0-.85.42-1.27.85-2.12,1.7-2.55,3-5.52,4.67-8.07.42-.85,1.27-1.27,1.7-2.12C78.16,51.3,79,51.72,79,52.57Z" transform="translate(0.01 0)"/><path d="M105.35,94.63a1.83,1.83,0,0,1-1.7-1.7,1.94,1.94,0,0,1,1.7-2.12c.85,0,2.12.42,2.12,1.7A2.73,2.73,0,0,1,105.35,94.63Z" transform="translate(0.01 0)"/></svg>